<svg width="15" height="6" viewBox="0 0 15 6" fill="none" xmlns="http://www.w3.org/2000/svg">
<path d="M2.73721 1.82749C3.21214 1.82749 3.61605 1.99615 3.94895 2.33349C4.28628 2.67082 4.45495 3.08361 4.45495 3.57185C4.45495 4.0601 4.28628 4.47289 3.94895 4.81022C3.61605 5.14756 3.21214 5.31622 2.73721 5.31622C2.14688 5.31622 1.69858 5.0721 1.39232 4.58385V5.23633H0.952896V0.575802H1.39232V2.55985C1.69858 2.07161 2.14688 1.82749 2.73721 1.82749ZM1.77182 4.51062C2.02482 4.76362 2.33552 4.89012 2.70392 4.89012C3.07233 4.89012 3.38303 4.76362 3.63603 4.51062C3.88903 4.25318 4.01553 3.94026 4.01553 3.57185C4.01553 3.20345 3.88903 2.89275 3.63603 2.63975C3.38303 2.38231 3.07233 2.25359 2.70392 2.25359C2.33552 2.25359 2.02482 2.38231 1.77182 2.63975C1.51882 2.89275 1.39232 3.20345 1.39232 3.57185C1.39232 3.94026 1.51882 4.25318 1.77182 4.51062ZM6.72357 1.82749C7.21626 1.82749 7.61351 2.00281 7.91534 2.35346C8.2216 2.69967 8.37473 3.11024 8.37473 3.58517C8.37473 3.63399 8.37029 3.70279 8.36142 3.79156H5.4386C5.48299 4.1289 5.62502 4.39743 5.86471 4.59717C6.10883 4.79247 6.40843 4.89012 6.76352 4.89012C7.01652 4.89012 7.23401 4.83907 7.416 4.73699C7.60242 4.63046 7.74223 4.49286 7.83544 4.3242L8.2216 4.55056C8.07513 4.78581 7.87539 4.97223 7.62239 5.10983C7.36939 5.24742 7.08088 5.31622 6.75686 5.31622C6.23311 5.31622 5.807 5.15199 5.47855 4.82354C5.15009 4.49508 4.98586 4.07785 4.98586 3.57185C4.98586 3.07473 5.14787 2.65972 5.47189 2.32683C5.79591 1.99393 6.21314 1.82749 6.72357 1.82749ZM6.72357 2.25359C6.37736 2.25359 6.08664 2.3579 5.85139 2.56651C5.62058 2.77069 5.48299 3.037 5.4386 3.36546H7.922C7.87761 3.01481 7.74223 2.74184 7.51586 2.54654C7.2895 2.35124 7.0254 2.25359 6.72357 2.25359ZM10.7405 2.33349H9.78178V4.35083C9.78178 4.53281 9.81729 4.66375 9.88831 4.74364C9.95933 4.8191 10.0659 4.85905 10.2079 4.86349C10.3499 4.86349 10.5275 4.85905 10.7405 4.85017V5.23633C10.2745 5.30735 9.92382 5.27406 9.68857 5.13646C9.45777 4.99886 9.34236 4.73699 9.34236 4.35083V2.33349H8.64328V1.90738H9.34236V1.10843L9.78178 0.975275V1.90738H10.7405V2.33349ZM14.1342 1.90738H14.5736V5.23633H14.1342V4.58385C13.828 5.0721 13.3797 5.31622 12.7893 5.31622C12.3144 5.31622 11.9083 5.14756 11.5709 4.81022C11.238 4.47289 11.0716 4.0601 11.0716 3.57185C11.0716 3.08361 11.238 2.67082 11.5709 2.33349C11.9083 1.99615 12.3144 1.82749 12.7893 1.82749C13.3797 1.82749 13.828 2.07161 14.1342 2.55985V1.90738ZM11.8905 4.51062C12.1435 4.76362 12.4542 4.89012 12.8226 4.89012C13.191 4.89012 13.5017 4.76362 13.7547 4.51062C14.0077 4.25318 14.1342 3.94026 14.1342 3.57185C14.1342 3.20345 14.0077 2.89275 13.7547 2.63975C13.5017 2.38231 13.191 2.25359 12.8226 2.25359C12.4542 2.25359 12.1435 2.38231 11.8905 2.63975C11.6375 2.89275 11.511 3.20345 11.511 3.57185C11.511 3.94026 11.6375 4.25318 11.8905 4.51062Z" fill="#1E2026"/>
</svg>
