<svg width="35" height="14" viewBox="0 0 35 14" fill="none" xmlns="http://www.w3.org/2000/svg">
<path d="M4.12157 10.3388H8.83078V12.9953H0.550854V10.8563L5.17381 3.57689H0.637103V0.92041H8.74453V3.05939L4.12157 10.3388Z" fill="#1E2026"/>
<path d="M15.6147 4.37038H18.2022V12.9953H15.6147V12.1846C15.0972 12.8861 14.2749 13.2368 13.148 13.2368C12.228 13.2368 11.4575 12.9206 10.8365 12.2881C10.227 11.6556 9.92224 10.7816 9.92224 9.66608V4.37038H12.5097V9.28659C12.5097 9.79258 12.6477 10.1836 12.9237 10.4596C13.2112 10.7241 13.5735 10.8563 14.0104 10.8563C14.5049 10.8563 14.8959 10.7068 15.1834 10.4078C15.4709 10.1088 15.6147 9.66608 15.6147 9.07959V4.37038Z" fill="#1E2026"/>
<path d="M27.8622 12.9953L27.2585 11.0978H22.7735L22.1698 12.9953H19.151L23.2565 0.92041H26.7755L30.8809 12.9953H27.8622ZM23.6015 8.51034H26.4305L25.016 4.07713L23.6015 8.51034Z" fill="#1E2026"/>
<path d="M31.9105 4.15476C32.7449 3.59338 33.8362 3.59338 34.6705 4.15476V12.9953H31.9105V4.15476Z" fill="#1E2026"/>
</svg>
